<svg xmlns="http://www.w3.org/2000/svg" data-name="Layer 1" width="786.81995" height="572.25773" viewBox="0 0 786.81995 572.25773" xmlns:xlink="http://www.w3.org/1999/xlink"><circle cx="458.32136" cy="74.18162" r="26.70075" fill="#6c63ff"/><path d="M872.03753,661.02307H667.33414a6.02663,6.02663,0,0,1-6.02031-6.02031V440.09a6.02663,6.02663,0,0,1,6.02031-6.02031H872.03753a6.02663,6.02663,0,0,1,6.02031,6.02031V655.00276A6.02663,6.02663,0,0,1,872.03753,661.02307Z" transform="translate(-206.59003 -163.87113)" fill="#e6e6e6"/><path d="M870.14948,657.80843H669.22219a4.41013,4.41013,0,0,1-4.40484-4.40484V441.97805a4.41013,4.41013,0,0,1,4.40484-4.40484H870.14948a4.41013,4.41013,0,0,1,4.40484,4.40484V653.40359A4.41013,4.41013,0,0,1,870.14948,657.80843Z" transform="translate(-206.59003 -163.87113)" fill="#fff"/><path d="M847.77882,468.92841H691.59285a3.7649,3.7649,0,1,1,0-7.52979H847.77882a3.7649,3.7649,0,0,1,0,7.52979Z" transform="translate(-206.59003 -163.87113)" fill="#6c63ff"/><path d="M847.77882,492.93825H691.59285a3.7649,3.7649,0,1,1,0-7.52979H847.77882a3.7649,3.7649,0,0,1,0,7.52979Z" transform="translate(-206.59003 -163.87113)" fill="#6c63ff"/><path d="M847.77882,516.94809H691.59285a3.7649,3.7649,0,1,1,0-7.52979H847.77882a3.7649,3.7649,0,0,1,0,7.52979Z" transform="translate(-206.59003 -163.87113)" fill="#6c63ff"/><path d="M847.77882,540.95793H691.59285a3.7649,3.7649,0,1,1,0-7.52979H847.77882a3.7649,3.7649,0,0,1,0,7.52979Z" transform="translate(-206.59003 -163.87113)" fill="#6c63ff"/><path d="M847.77882,564.96777H691.59285a3.7649,3.7649,0,1,1,0-7.52979H847.77882a3.7649,3.7649,0,0,1,0,7.52979Z" transform="translate(-206.59003 -163.87113)" fill="#6c63ff"/><path d="M847.77882,588.97761H691.59285a3.7649,3.7649,0,1,1,0-7.52979H847.77882a3.7649,3.7649,0,0,1,0,7.52979Z" transform="translate(-206.59003 -163.87113)" fill="#6c63ff"/><path d="M847.77882,612.98745H691.59285a3.7649,3.7649,0,1,1,0-7.52979H847.77882a3.7649,3.7649,0,0,1,0,7.52979Z" transform="translate(-206.59003 -163.87113)" fill="#6c63ff"/><path d="M856.14515,396.77737H683.22652a3.82,3.82,0,0,1-3.81577-3.81577V340.75553a3.82,3.82,0,0,1,3.81577-3.81577H856.14515a3.82,3.82,0,0,1,3.81577,3.81577v52.20607A3.82,3.82,0,0,1,856.14515,396.77737Z" transform="translate(-206.59003 -163.87113)" fill="#6c63ff"/><path d="M933.62462,505.31486H558.64223a7.56,7.56,0,0,1-7.55156-7.55156V171.42269a7.56,7.56,0,0,1,7.55156-7.55156H933.62462a7.56,7.56,0,0,1,7.55156,7.55156V497.7633A7.56,7.56,0,0,1,933.62462,505.31486Z" transform="translate(-206.59003 -163.87113)" fill="#e6e6e6"/><path d="M931.23812,501.41737H561.02873a5.53,5.53,0,0,1-5.52605-5.52605V173.80918a5.53,5.53,0,0,1,5.52605-5.52605H931.23812a5.53,5.53,0,0,1,5.52605,5.52605V495.89132A5.53,5.53,0,0,1,931.23812,501.41737Z" transform="translate(-206.59003 -163.87113)" fill="#fff"/><path d="M903.48447,207.39117H588.78238a4.72,4.72,0,1,1,0-9.44H903.48447a4.72,4.72,0,0,1,0,9.44Z" transform="translate(-206.59003 -163.87113)" fill="#6c63ff"/><path d="M903.48447,237.89117H588.78238a4.72,4.72,0,1,1,0-9.44H903.48447a4.72,4.72,0,0,1,0,9.44Z" transform="translate(-206.59003 -163.87113)" fill="#6c63ff"/><path d="M903.48447,268.39117H588.78238a4.72,4.72,0,1,1,0-9.44H903.48447a4.72,4.72,0,0,1,0,9.44Z" transform="translate(-206.59003 -163.87113)" fill="#6c63ff"/><path d="M903.48447,298.89117H588.78238a4.72,4.72,0,1,1,0-9.44H903.48447a4.72,4.72,0,0,1,0,9.44Z" transform="translate(-206.59003 -163.87113)" fill="#6c63ff"/><path d="M903.48447,329.39117H588.78238a4.72,4.72,0,1,1,0-9.44H903.48447a4.72,4.72,0,0,1,0,9.44Z" transform="translate(-206.59003 -163.87113)" fill="#6c63ff"/><path d="M903.48447,359.89117H588.78238a4.72,4.72,0,1,1,0-9.44H903.48447a4.72,4.72,0,0,1,0,9.44Z" transform="translate(-206.59003 -163.87113)" fill="#6c63ff"/><path d="M903.48447,390.39117H588.78238a4.72,4.72,0,1,1,0-9.44H903.48447a4.72,4.72,0,0,1,0,9.44Z" transform="translate(-206.59003 -163.87113)" fill="#6c63ff"/><path d="M903.48447,420.89117H588.78238a4.72,4.72,0,1,1,0-9.44H903.48447a4.72,4.72,0,0,1,0,9.44Z" transform="translate(-206.59003 -163.87113)" fill="#6c63ff"/><path d="M903.48447,451.39117H588.78238a4.72,4.72,0,1,1,0-9.44H903.48447a4.72,4.72,0,0,1,0,9.44Z" transform="translate(-206.59003 -163.87113)" fill="#6c63ff"/><path d="M913.77823,116.94475H578.48862a4.79,4.79,0,0,1-4.78472-4.78472V49.34841a4.79,4.79,0,0,1,4.78472-4.78472H913.77823a4.79,4.79,0,0,1,4.78472,4.78472v62.81162A4.79,4.79,0,0,1,913.77823,116.94475Z" transform="translate(-206.59003 -163.87113)" fill="#6c63ff"/><circle cx="149.17058" cy="198.37374" r="71.88313" fill="#6c63ff"/><path d="M342.73256,326.41339l.21138,39.3906,39.3906.21138L449.9,333.34374l-39.3906-.21138-.21138-39.3906Z" transform="translate(-206.59003 -163.87113)" fill="#6c63ff"/><path d="M374.40974,365.69477l-1.40522.00754L373.21557,404.33l67.58233,32.68218.00754-1.40522,1.40522-.00754-.21138-39.3906L374.40974,365.69477Z" transform="translate(-206.59003 -163.87113)" fill="#3f3d56"/><path d="M449.9,333.34374l-.21138,39.3906,1.40522-.00754L517.27284,404.33l.21138-39.3906L450.90518,332.245l-1.40522.00754Z" transform="translate(-206.59003 -163.87113)" fill="#3f3d56"/><path d="M373.21557,404.33l39.3906.21138,67.37095-32.47081.21138-39.3906L412.82379,365.27l-39.3906-.21138Z" transform="translate(-206.59003 -163.87113)" fill="#6c63ff"/><path d="M412.82379,365.27l.21138,39.3906L517.27284,404.33l-.21138-39.3906Z" transform="translate(-206.59003 -163.87113)" opacity="0.1" style="isolation:isolate"/><path d="M373.21557,404.33l39.3906.21138.21138-39.3906-39.3906-.21138Z" transform="translate(-206.59003 -163.87113)" opacity="0.1" style="isolation:isolate"/><path d="M412.82379,365.27l.21138,39.3906L480.19474,437.01218l-.21138-39.3906Z" transform="translate(-206.59003 -163.87113)" fill="#3f3d56"/><path d="M373.21557,404.33l39.3906.21138L480.19474,437.01218,440.80414,436.8008Z" transform="translate(-206.59003 -163.87113)" fill="#3f3d56"/><path d="M399.59,315.0125a71.877,71.877,0,0,1,143.754,0Z" transform="translate(-206.59003 -163.87113)" fill="#3f3d56"/><path d="M399.59,315.0125l35.939,17.416,35.939-17.416,35.939,17.416,35.937-17.416A71.877,71.877,0,0,0,399.59,315.0125Z" transform="translate(-206.59003 -163.87113)" fill="#6c63ff"/><circle cx="149.17058" cy="198.37374" r="35.93897" fill="#3f3d56"/><circle cx="149.17058" cy="198.37374" r="23.95931" fill="#6c63ff"/><path d="M355.85613,362.33517a35.94,35.94,0,0,1,71.87993,0Z" transform="translate(-206.59003 -163.87113)" fill="#3f3d56"/></svg>